<svg width="60" height="19" viewBox="0 0 60 19" fill="none" xmlns="http://www.w3.org/2000/svg">
<g clip-path="url(#clip0)">
<path d="M40 9.9H60M0 13.5H4.2L5 12.7L0 13.5ZM5 12.7L5.8 12.2L6.6 10.4L7.4 8.4L8.2 5.8L9 5.2L10 4.6L10.8 1.3L11.6 2.1L12.4 2.7L13.2 2.4L14 4.7L15 6.6L15.8 6.2L16.6 4.4L17.4 5.4L18.2 5.7L19.2 6L20 4.8L20.8 4.4L21.6 5.1L22.4 4.9L23.2 7.1H24L25 7.2L25.8 4.9L26.6 4.8L27.4 6.8L28.2 6.4L29 7.3L30 5.4L30.8 6L31.6 5.7L32.5 7L33.3 7.4L34.1 6.6L35 6.3L35.8 7.1L36.6 8.5L37.4 8.8L38.2 10.2L39 9.9H39.8L5 12.7Z" stroke="#C53B3B" stroke-miterlimit="10"/>
</g>
<defs>
<clipPath id="clip0">
<rect width="60" height="18.6" fill="white"/>
</clipPath>
</defs>
</svg>
